<svg width="76" height="76" viewBox="0 0 76 76" fill="none" xmlns="http://www.w3.org/2000/svg">
<path fill-rule="evenodd" clip-rule="evenodd" d="M76 38C76 58.9868 58.9868 76 38 76C17.0132 76 0 58.9868 0 38C0 17.0132 17.0132 1.52588e-05 38 1.52588e-05C58.9868 1.52588e-05 76 17.0132 76 38ZM20.4813 33.7257C20.4813 31.5987 22.2056 29.8744 24.3326 29.8744C24.3412 29.8744 24.3498 29.8744 24.3584 29.8745C24.3692 29.8745 24.3799 29.8746 24.3907 29.8748C25.3949 29.8603 26.4037 30.2362 27.17 31.0024L33.9241 37.7566V25.3165H23.2588C21.1318 25.3165 19.4075 23.5922 19.4075 21.4652C19.4075 19.3381 21.1318 17.6138 23.2588 17.6138L37.7755 17.6138H52.2921C54.4192 17.6138 56.1435 19.3381 56.1435 21.4652C56.1435 23.5922 54.4192 25.3165 52.2921 25.3165H41.6268V37.752L48.2624 31.1164C48.3112 31.0677 48.3609 31.0205 48.4116 30.9748C49.1063 30.2941 50.0577 29.8744 51.1071 29.8744C53.2341 29.8744 54.9584 31.5987 54.9584 33.7257V50.6124C54.9584 52.7395 53.2341 54.4638 51.1071 54.4638C48.98 54.4638 47.2557 52.7395 47.2557 50.6124V43.0164L41.706 48.5661C41.6799 48.5922 41.6535 48.6179 41.6268 48.6431V55.5348C41.6268 57.6619 39.9025 59.3862 37.7755 59.3862C35.6484 59.3862 33.9241 57.6619 33.9241 55.5348V48.6499L28.184 42.9097V50.6124C28.184 52.7395 26.4597 54.4638 24.3326 54.4638C22.2056 54.4638 20.4813 52.7395 20.4813 50.6124V33.7257Z" fill="#1B1C1F"/>
</svg>
