<svg width="76" height="76" viewBox="0 0 76 76" fill="none" xmlns="http://www.w3.org/2000/svg">
<path fill-rule="evenodd" clip-rule="evenodd" d="M76 38C76 58.9868 58.9868 76 38 76C17.0132 76 0 58.9868 0 38C0 17.0132 17.0132 0 38 0C58.9868 0 76 17.0132 76 38ZM52.3537 46.8214C53.9339 44.2557 54.8454 41.2343 54.8454 38C54.8454 28.6966 47.3034 21.1546 38 21.1546C28.6966 21.1546 21.1546 28.6966 21.1546 38C21.1546 47.3034 28.6966 54.8454 38 54.8454C41.038 54.8454 43.8881 54.0412 46.3491 52.6341C47.9861 54.2093 50.5902 54.1902 52.2038 52.5767C53.785 50.9954 53.835 48.4628 52.3537 46.8214ZM40.4009 46.6869C39.6365 46.8977 38.8314 47.0103 38 47.0103C33.0238 47.0103 28.9897 42.9763 28.9897 38C28.9897 33.0237 33.0238 28.9897 38 28.9897C42.9763 28.9897 47.0103 33.0237 47.0103 38C47.0103 39.0404 46.834 40.0396 46.5096 40.9694L43.7545 38.2143C42.1217 36.5814 39.4743 36.5814 37.8414 38.2143C36.2085 39.8472 36.2085 42.4946 37.8414 44.1274L40.4009 46.6869Z" fill="#1B1C1F"/>
</svg>
